<?xml version="1.0" standalone="no"?><!DOCTYPE svg PUBLIC "-//W3C//DTD SVG 1.1//EN" "http://www.w3.org/Graphics/SVG/1.1/DTD/svg11.dtd"><svg class="icon" width="200px" height="200.00px" viewBox="0 0 1024 1024" version="1.1" xmlns="http://www.w3.org/2000/svg">
<path fill="#BC9A67" d="M184.216111 394.329947l-2.088591-39.938044-71.586682 3.74747 186.838893-207.514937c-5.886027-3.047943-11.592176-6.595548-16.748696-11.242412-5.161516-4.646864-9.293727-9.953282-12.956255-15.499539L80.835887 331.40242l-3.74747-71.57669-39.913061 2.108577L44.495415 401.625023l139.720696-7.295076zM814.570652 199.026767c-0.174882 0-0.339771-0.034976-0.519649-0.034977L881.530458 469.629123l-61.423542-36.910087-20.586106 34.276865 119.924057 72.036379 72.051369-119.919061-34.251882-20.571115-36.92008 61.423542-67.539414-270.932134c-5.886027 3.202838-12.056862 5.935993-18.722364 7.594873-6.460639 1.598921-12.996228 2.398381-19.486847 2.398382z" />
<path fill="#ff417a" d="M297.379731 150.624436c11.532216 5.995953 24.073751 9.248758 36.705226 9.248757 21.885229 0 43.690511-8.91898 59.439881-26.407176a79.381421 79.381421 0 0 0 20.436206-57.676072 79.406405 79.406405 0 0 0-26.337223-55.237717C354.855937-8.957854 304.205124-6.299648 274.705035 26.468235c-24.848229 27.621357-26.602045 67.784249-7.035251 97.41425 3.657531 5.546257 7.794739 10.852675 12.956255 15.499539 5.15652 4.646864 10.867665 8.194469 16.748695 11.242412z" />
<path fill="#BC9A67" d="M875.934235 893.792833c4.322083-5.346391 9.398656-9.7784 14.775027-13.755715l-216.99354-175.721397 71.291882-7.494941-4.177181-39.743175-139.146083 14.620132 14.630125 139.146083 39.758166-4.177181-7.494942-71.301874 216.99354 175.741383c2.748145-6.045919 6.00095-11.94194 10.372999-17.333301l-0.009993 0.019986z" />
<path fill="#ff417a" d="M773.553337 187.594483a79.62126 79.62126 0 0 0 40.497666 11.392311c0.179879 0 0.344767 0.039973 0.519649 0.039973 6.490619 0 13.026208-0.79946 19.486848-2.398382 6.665501-1.65888 12.831339-4.392036 18.717366-7.594873 12.406626-6.710471 23.014466-16.388938 30.469435-28.805558a79.396411 79.396411 0 0 0 9.043896-60.529146 79.476357 79.476357 0 0 0-36.390439-49.181805A79.686216 79.686216 0 0 0 795.388599 41.478104a79.446378 79.446378 0 0 0-49.191798 36.400432 79.411401 79.411401 0 0 0-9.043896 60.524149 79.461367 79.461367 0 0 0 36.400432 49.191798z"/>
<path fill="#BC9A67" d="M364.454459 492.323805c2.987983 5.995953 5.501287 12.261724 6.930322 18.972195 1.434032 6.715467 1.67387 13.450921 1.399056 20.146402l273.10067-58.045822-39.033654 60.09444 33.527371 21.785296 76.198569-117.345798-117.330807-76.218556-21.785296 33.527371 60.129415 39.058637-273.135646 58.025835z"/>
<path fill="#ff417a" d="M1017.578632 935.739522a79.396411 79.396411 0 0 0-29.190298-53.773706 79.601273 79.601273 0 0 0-58.670401-17.388264c-14.405277 1.518975-27.666327 7.045245-39.008671 15.454569-5.376371 3.982312-10.452945 8.414321-14.775027 13.760712l0.009993-0.019986c-4.372049 5.386364-7.619857 11.282385-10.372999 17.338297-14.695082 32.338173-6.675494 71.741578 22.190023 95.125795a79.611266 79.611266 0 0 0 50.221103 17.763011c23.314264 0 46.443653-10.113174 62.21301-29.590028a79.436384 79.436384 0 0 0 17.383267-58.6704zM371.379784 511.300997c-1.424039-6.715467-3.937342-12.981238-6.925325-18.972195-6.285757-12.631474-15.589478-23.584082-27.731283-31.463763a79.596276 79.596276 0 0 0-60.149402-11.14248 79.406405 79.406405 0 0 0-50.435958 34.661605 79.431388 79.431388 0 0 0-11.14248 60.154399 79.426391 79.426391 0 0 0 34.651612 50.435958 79.466364 79.466364 0 0 0 60.159395 11.14248 79.371428 79.371428 0 0 0 50.430962-34.666602c7.894671-12.141805 11.936943-25.917507 12.541535-40.007997 0.279811-6.695481 0.039973-13.430935-1.399056-20.146402z"/>
<path fill="#BC9A67" d="M396.582774 796.478516l29.150325 65.460817-260.664065-100.047473c-0.764484 6.635521-2.063607 13.251056-4.521948 19.671723-2.458341 6.40068-5.91101 12.181778-9.79339 17.643092l260.674058 100.072455-65.4858 29.160319 16.259026 36.495367 127.803738-56.891601-56.90659-127.803739-36.515354 16.23904z"/>
<path fill="#ff417a" d="M165.064037 761.89186c1.613911-14.035527-0.229845-28.260925-6.115872-41.496991a79.381421 79.381421 0 0 0-44.385042-42.12157 79.346445 79.346445 0 0 0-61.168714 1.59892 79.446378 79.446378 0 0 0-42.12157 44.385043 79.441381 79.441381 0 0 0 1.598921 61.17371 79.391415 79.391415 0 0 0 44.385042 42.12157 79.956034 79.956034 0 0 0 28.680642 5.346392c11.062533 0 22.085094-2.323432 32.493069-6.950309 13.23107-5.89602 24.133711-15.239714 32.323183-26.74195 3.88238-5.461314 7.335049-11.242412 9.79339-17.638096 2.458341-6.425663 3.757464-13.041198 4.521948-19.676719z"/>
</svg>